#Comment line ignore any data following # character 
#Hierarchical Translation and Rotation (.htr) file 
[Header]	
#Header keywords are followed by a single value 
FileType HTR		#Single word string
DataType HTRS		#Translation followed by rotation and scale data
FileVersion 1		#integer
NumSegments 84		#integer
NumFrames 2		#integer
DataFrameRate 30		#integer, data frame rate in this file
EulerRotationOrder ZYX
CalibrationUnits mm
RotationUnits Degrees
GlobalAxisofGravity Y
BoneLengthAxis Y
ScaleFactor 1.00
[SegmentNames&Hierarchy]
#CHILD	PARENT
MASTER GLOBAL
root MASTER
chest root
L_mid_tent01 root
R_mid_tent01 root
spine01 root
Bip01_Neck chest
L_humerus chest
R_humerus chest
weapon_bone chest
Bip01_Head Bip01_Neck
eye_left_bone Bip01_Head
eye_right_bone Bip01_Head
L_forearm L_humerus
L_front_hand L_forearm
L_weapon_bone L_forearm
L_front_hand01_01 L_front_hand
L_front_hand02_01 L_front_hand
L_front_hand03_01 L_front_hand
L_front_hand01_02 L_front_hand01_01
L_front_hand02_02 L_front_hand02_01
L_front_hand03_02 L_front_hand03_01
R_forearm R_humerus
R_front_hand R_forearm
R_weapon_bone R_forearm
R_front_hand01_01 R_front_hand
R_front_hand02_01 R_front_hand
R_front_hand03_01 R_front_hand
R_front_hand01_02 R_front_hand01_01
R_front_hand02_02 R_front_hand02_01
R_front_hand03_02 R_front_hand03_01
null_rope01_connect L_mid_tent01
Rope1_Seg01 null_rope01_connect
Rope1_Seg02 Rope1_Seg01
Rope1_Seg03 Rope1_Seg02
Rope1_Seg04 Rope1_Seg03
Rope1_Seg05 Rope1_Seg04
Rope1_Seg06 Rope1_Seg05
Rope1_Seg07 Rope1_Seg06
Rope1_Seg09 Rope1_Seg07
L_mid_hand01 Rope1_Seg09
L_mid_hand02 Rope1_Seg09
L_mid_hand03 Rope1_Seg09
null_rope02_connect R_mid_tent01
Rope2_Seg01 null_rope02_connect
Rope2_Seg02 Rope2_Seg01
Rope2_Seg03 Rope2_Seg02
Rope2_Seg04 Rope2_Seg03
Rope2_Seg05 Rope2_Seg04
Rope2_Seg06 Rope2_Seg05
Rope2_Seg07 Rope2_Seg06
Rope2_Seg09 Rope2_Seg07
R_mid_hand01 Rope2_Seg09
R_mid_hand02 Rope2_Seg09
R_mid_hand03 Rope2_Seg09
spine02 spine01
spine03 spine02
pelvis spine03
null_rope03_connect pelvis
null_rope04_connect pelvis
Rope3_Seg01 null_rope03_connect
Rope3_Seg02 Rope3_Seg01
Rope3_Seg03 Rope3_Seg02
Rope3_Seg04 Rope3_Seg03
Rope3_Seg05 Rope3_Seg04
Rope3_Seg06 Rope3_Seg05
Rope3_Seg07 Rope3_Seg06
Rope3_Seg08 Rope3_Seg07
Rope3_Seg09 Rope3_Seg08
R_rear_hand01 Rope3_Seg09
R_rear_hand02 Rope3_Seg09
R_rear_hand03 Rope3_Seg09
Rope4_Seg01 null_rope04_connect
Rope4_Seg02 Rope4_Seg01
Rope4_Seg03 Rope4_Seg02
Rope4_Seg04 Rope4_Seg03
Rope4_Seg05 Rope4_Seg04
Rope4_Seg06 Rope4_Seg05
Rope4_Seg07 Rope4_Seg06
Rope4_Seg08 Rope4_Seg07
Rope4_Seg09 Rope4_Seg08
L_rear_hand01 Rope4_Seg09
L_rear_hand02 Rope4_Seg09
L_rear_hand03 Rope4_Seg09
[BasePosition]
#SegmentName Tx, Ty, Tz, Rx, Ry, Rz, BoneLength
MASTER 0.000000 0.000000 0.000000 -90.000000 0.000000 0.000000 10.000000 
root 0.000000 0.000000 0.000000 0.000000 0.000000 0.000000 10.000000 
chest 0.000000 0.000000 0.000000 0.000000 0.000000 0.000000 10.000000 
L_mid_tent01 0.000000 0.000000 0.000000 0.000000 0.000000 0.000000 10.000000 
R_mid_tent01 0.000000 0.000000 0.000000 0.000000 0.000000 0.000000 10.000000 
spine01 0.000000 0.000000 0.000000 0.000000 0.000000 0.000000 10.000000 
Bip01_Neck 0.000000 0.000000 0.000000 0.000000 0.000000 0.000000 10.000000 
L_humerus 0.000000 0.000000 0.000000 0.000000 0.000000 0.000000 10.000000 
R_humerus 0.000000 0.000000 0.000000 0.000000 0.000000 0.000000 10.000000 
weapon_bone 0.000000 0.000000 0.000000 0.000000 0.000000 0.000000 10.000000 
Bip01_Head 0.000000 0.000000 0.000000 0.000000 0.000000 0.000000 10.000000 
eye_left_bone 0.000000 0.000000 0.000000 0.000000 0.000000 0.000000 10.000000 
eye_right_bone 0.000000 0.000000 0.000000 0.000000 0.000000 0.000000 10.000000 
L_forearm 0.000000 0.000000 0.000000 0.000000 0.000000 0.000000 10.000000 
L_front_hand 0.000000 0.000000 0.000000 0.000000 0.000000 0.000000 10.000000 
L_weapon_bone 0.000000 0.000000 0.000000 0.000000 0.000000 0.000000 10.000000 
L_front_hand01_01 0.000000 0.000000 0.000000 0.000000 0.000000 0.000000 10.000000 
L_front_hand02_01 0.000000 0.000000 0.000000 0.000000 0.000000 0.000000 10.000000 
L_front_hand03_01 0.000000 0.000000 0.000000 0.000000 0.000000 0.000000 10.000000 
L_front_hand01_02 0.000000 0.000000 0.000000 0.000000 0.000000 0.000000 10.000000 
L_front_hand02_02 0.000000 0.000000 0.000000 0.000000 0.000000 0.000000 10.000000 
L_front_hand03_02 0.000000 0.000000 0.000000 0.000000 0.000000 0.000000 10.000000 
R_forearm 0.000000 0.000000 0.000000 0.000000 0.000000 0.000000 10.000000 
R_front_hand 0.000000 0.000000 0.000000 0.000000 0.000000 0.000000 10.000000 
R_weapon_bone 0.000000 0.000000 0.000000 0.000000 0.000000 0.000000 10.000000 
R_front_hand01_01 0.000000 0.000000 0.000000 0.000000 0.000000 0.000000 10.000000 
R_front_hand02_01 0.000000 0.000000 0.000000 0.000000 0.000000 0.000000 10.000000 
R_front_hand03_01 0.000000 0.000000 0.000000 0.000000 0.000000 0.000000 10.000000 
R_front_hand01_02 0.000000 0.000000 0.000000 0.000000 0.000000 0.000000 10.000000 
R_front_hand02_02 0.000000 0.000000 0.000000 0.000000 0.000000 0.000000 10.000000 
R_front_hand03_02 0.000000 0.000000 0.000000 0.000000 0.000000 0.000000 10.000000 
null_rope01_connect 0.000000 0.000000 0.000000 0.000000 0.000000 0.000000 10.000000 
Rope1_Seg01 0.000000 0.000000 0.000000 0.000000 0.000000 0.000000 10.000000 
Rope1_Seg02 0.000000 0.000000 0.000000 0.000000 0.000000 0.000000 10.000000 
Rope1_Seg03 0.000000 0.000000 0.000000 0.000000 0.000000 0.000000 10.000000 
Rope1_Seg04 0.000000 0.000000 0.000000 0.000000 0.000000 0.000000 10.000000 
Rope1_Seg05 0.000000 0.000000 0.000000 0.000000 0.000000 0.000000 10.000000 
Rope1_Seg06 0.000000 0.000000 0.000000 0.000000 0.000000 0.000000 10.000000 
Rope1_Seg07 0.000000 0.000000 0.000000 0.000000 0.000000 0.000000 10.000000 
Rope1_Seg09 0.000000 0.000000 0.000000 0.000000 0.000000 0.000000 10.000000 
L_mid_hand01 0.000000 0.000000 0.000000 0.000000 0.000000 0.000000 10.000000 
L_mid_hand02 0.000000 0.000000 0.000000 0.000000 0.000000 0.000000 10.000000 
L_mid_hand03 0.000000 0.000000 0.000000 0.000000 0.000000 0.000000 10.000000 
null_rope02_connect 0.000000 0.000000 0.000000 0.000000 0.000000 0.000000 10.000000 
Rope2_Seg01 0.000000 0.000000 0.000000 0.000000 0.000000 0.000000 10.000000 
Rope2_Seg02 0.000000 0.000000 0.000000 0.000000 0.000000 0.000000 10.000000 
Rope2_Seg03 0.000000 0.000000 0.000000 0.000000 0.000000 0.000000 10.000000 
Rope2_Seg04 0.000000 0.000000 0.000000 0.000000 0.000000 0.000000 10.000000 
Rope2_Seg05 0.000000 0.000000 0.000000 0.000000 0.000000 0.000000 10.000000 
Rope2_Seg06 0.000000 0.000000 0.000000 0.000000 0.000000 0.000000 10.000000 
Rope2_Seg07 0.000000 0.000000 0.000000 0.000000 0.000000 0.000000 10.000000 
Rope2_Seg09 0.000000 0.000000 0.000000 0.000000 0.000000 0.000000 10.000000 
R_mid_hand01 0.000000 0.000000 0.000000 0.000000 0.000000 0.000000 10.000000 
R_mid_hand02 0.000000 0.000000 0.000000 0.000000 0.000000 0.000000 10.000000 
R_mid_hand03 0.000000 0.000000 0.000000 0.000000 0.000000 0.000000 10.000000 
spine02 0.000000 0.000000 0.000000 0.000000 0.000000 0.000000 10.000000 
spine03 0.000000 0.000000 0.000000 0.000000 0.000000 0.000000 10.000000 
pelvis 0.000000 0.000000 0.000000 0.000000 0.000000 0.000000 10.000000 
null_rope03_connect 0.000000 0.000000 0.000000 0.000000 0.000000 0.000000 10.000000 
null_rope04_connect 0.000000 0.000000 0.000000 0.000000 0.000000 0.000000 10.000000 
Rope3_Seg01 0.000000 0.000000 0.000000 0.000000 0.000000 0.000000 10.000000 
Rope3_Seg02 0.000000 0.000000 0.000000 0.000000 0.000000 0.000000 10.000000 
Rope3_Seg03 0.000000 0.000000 0.000000 0.000000 0.000000 0.000000 10.000000 
Rope3_Seg04 0.000000 0.000000 0.000000 0.000000 0.000000 0.000000 10.000000 
Rope3_Seg05 0.000000 0.000000 0.000000 0.000000 0.000000 0.000000 10.000000 
Rope3_Seg06 0.000000 0.000000 0.000000 0.000000 0.000000 0.000000 10.000000 
Rope3_Seg07 0.000000 0.000000 0.000000 0.000000 0.000000 0.000000 10.000000 
Rope3_Seg08 0.000000 0.000000 0.000000 0.000000 0.000000 0.000000 10.000000 
Rope3_Seg09 0.000000 0.000000 0.000000 0.000000 0.000000 0.000000 10.000000 
R_rear_hand01 0.000000 0.000000 0.000000 0.000000 0.000000 0.000000 10.000000 
R_rear_hand02 0.000000 0.000000 0.000000 0.000000 0.000000 0.000000 10.000000 
R_rear_hand03 0.000000 0.000000 0.000000 0.000000 0.000000 0.000000 10.000000 
Rope4_Seg01 0.000000 0.000000 0.000000 0.000000 0.000000 0.000000 10.000000 
Rope4_Seg02 0.000000 0.000000 0.000000 0.000000 0.000000 0.000000 10.000000 
Rope4_Seg03 0.000000 0.000000 0.000000 0.000000 0.000000 0.000000 10.000000 
Rope4_Seg04 0.000000 0.000000 0.000000 0.000000 0.000000 0.000000 10.000000 
Rope4_Seg05 0.000000 0.000000 0.000000 0.000000 0.000000 0.000000 10.000000 
Rope4_Seg06 0.000000 0.000000 0.000000 0.000000 0.000000 0.000000 10.000000 
Rope4_Seg07 0.000000 0.000000 0.000000 0.000000 0.000000 0.000000 10.000000 
Rope4_Seg08 0.000000 0.000000 0.000000 0.000000 0.000000 0.000000 10.000000 
Rope4_Seg09 0.000000 0.000000 0.000000 0.000000 0.000000 0.000000 10.000000 
L_rear_hand01 0.000000 0.000000 0.000000 0.000000 0.000000 0.000000 10.000000 
L_rear_hand02 0.000000 0.000000 0.000000 0.000000 0.000000 0.000000 10.000000 
L_rear_hand03 0.000000 0.000000 0.000000 0.000000 0.000000 0.000000 10.000000 
#Beginning of Data. Separated by tabs
#Fr	Tx	Ty	Tz	Rx	Ry	Rz	SF
[MASTER]
16 -0.000647 3419.410645 388.017670 0.001660 0.001660 0.001660 3441.355469
17 -0.000692 3626.431152 354.936615 0.001660 0.001660 0.001660 3643.759521
[root]
16 -36.019054 -56.421207 1502.554321 -90.563843 -10.415057 -92.517799 1504.044678
17 -33.979057 -58.256836 1502.465820 -92.332275 -12.381169 -92.340912 1503.978760
[chest]
16 -84.512650 -34.090519 0.000000 -1.944386 0.799150 179.678101 91.129311
17 -84.512650 -34.090519 0.000000 -1.929403 0.850664 -179.615311 91.129311
[L_mid_tent01]
16 27.299139 22.179211 -249.918716 -13.701184 7.421454 14.961415 252.381714
17 27.299141 22.179214 -249.918716 -14.559464 8.010637 14.746090 252.381714
[R_mid_tent01]
16 23.228794 24.509907 226.238495 -177.416138 -10.289907 24.527718 228.744751
17 23.228794 24.509907 226.238495 -175.852341 -11.286695 24.564354 228.744751
[spine01]
16 -0.361383 -0.195265 0.000000 0.002037 0.001166 30.407234 0.410763
17 -0.361383 -0.195265 0.000000 0.002032 0.001175 29.905273 0.410763
[Bip01_Neck]
16 165.484543 71.581718 0.000119 176.643677 -1.657967 43.431911 180.302734
17 165.484543 71.581718 0.000119 176.643677 -1.657967 43.431911 180.302734
[L_humerus]
16 -13.983130 -135.272980 -120.471481 -6.855803 64.573441 83.017746 181.680161
17 -13.983130 -135.272980 -120.471481 -6.769670 64.881485 83.115913 181.680161
[R_humerus]
16 -13.983309 -135.273102 125.287651 25.900942 -65.400368 69.814537 184.909012
17 -13.983309 -135.273102 125.287651 26.018805 -65.720375 69.689415 184.909012
[weapon_bone]
16 235.964890 -300.705902 0.000000 0.000000 -89.951546 -128.212341 382.234833
17 235.964890 -300.705902 0.000000 0.000000 -89.951546 -128.212341 382.234833
[Bip01_Head]
16 213.417053 185.791779 10.791734 4.439511 -0.609496 -43.899078 283.164063
17 213.370956 185.920258 9.132710 4.439538 -0.278524 -43.901749 283.155273
[eye_left_bone]
16 -24.626970 125.451866 -64.772606 0.000000 -90.000000 -99.840431 143.318359
17 -24.626970 125.451866 -64.772606 0.000000 -90.000000 -99.840431 143.318359
[eye_right_bone]
16 -24.626970 125.451866 64.327362 0.000000 -89.965736 80.156380 143.117676
17 -24.626970 125.451866 64.327362 0.000000 -89.965736 80.156380 143.117676
[L_forearm]
16 322.776093 0.000000 -0.000119 0.000425 -0.002308 -110.867683 322.776093
17 322.776093 0.000000 -0.000119 0.000423 -0.002309 -110.765556 322.776093
[L_front_hand]
16 241.149185 -0.042021 -3.300071 -178.667953 -1.835447 -27.422350 241.171753
17 241.149185 -0.042021 -3.300071 -178.667953 -1.835447 -27.422350 241.171753
[L_weapon_bone]
16 156.183838 0.000000 0.000000 0.000014 0.000007 0.000001 156.183838
17 156.183838 0.000000 0.000000 0.000014 0.000007 0.000001 156.183838
[L_front_hand01_01]
16 86.095154 20.947098 -0.655860 -0.280373 -0.529283 65.613800 88.609184
17 86.095154 20.947098 -0.655860 -0.282467 -0.528169 66.067474 88.609184
[L_front_hand02_01]
16 86.935165 -11.437475 24.513514 141.458649 -54.658344 -46.027485 91.046425
17 86.935165 -11.437475 24.513514 141.960785 -54.937954 -46.642345 91.046425
[L_front_hand03_01]
16 86.637497 -14.123976 -20.424902 -141.832764 52.885189 -48.080185 90.126129
17 86.637497 -14.123976 -20.424902 -142.303543 53.163303 -48.671032 90.126129
[L_front_hand01_02]
16 71.020905 -0.000179 0.000030 0.000315 -0.002326 -105.400543 71.020905
17 71.020905 -0.000179 0.000030 0.000315 -0.002326 -105.421257 71.020905
[L_front_hand02_02]
16 71.020927 -0.000119 0.000060 0.000315 -0.002326 -105.400543 71.020927
17 71.020927 -0.000119 0.000060 0.000315 -0.002326 -105.421257 71.020927
[L_front_hand03_02]
16 71.020905 -0.000060 0.000060 0.000315 -0.002326 -105.400543 71.020905
17 71.020905 -0.000060 0.000060 0.000315 -0.002326 -105.421257 71.020905
[R_forearm]
16 322.776428 -0.000060 0.000030 0.201249 0.067748 -109.534790 322.776428
17 322.776428 -0.000060 0.000030 0.201316 0.067550 -109.421646 322.776428
[R_front_hand]
16 238.847015 -0.006795 2.210259 -2.635298 -10.645461 -26.312506 238.857239
17 238.847015 -0.006795 2.210259 -2.635298 -10.645461 -26.312506 238.857239
[R_weapon_bone]
16 155.664093 0.002503 -0.000030 0.003487 0.001180 -90.988930 155.664078
17 155.664093 0.002503 -0.000030 0.003487 0.001180 -90.988930 155.664078
[R_front_hand01_01]
16 87.624611 14.231146 22.918642 -138.672287 -52.939835 42.677601 91.683487
17 87.624611 14.231146 22.918642 -139.271561 -53.333107 43.426708 91.683487
[R_front_hand02_01]
16 89.356956 14.367283 -19.491137 139.502045 51.377892 45.363930 92.579636
17 89.356956 14.367283 -19.491137 140.080994 51.767307 46.104946 92.579636
[R_front_hand03_01]
16 87.286232 -22.307278 -0.143439 0.064897 -0.451663 -63.182877 90.091743
17 87.286232 -22.307278 -0.143439 0.071479 -0.448702 -63.787704 90.091743
[R_front_hand01_02]
16 71.020905 0.000060 0.000119 0.002323 -0.000334 106.381714 71.020905
17 71.020905 0.000060 0.000119 0.002323 -0.000334 106.381714 71.020905
[R_front_hand02_02]
16 71.020844 -0.000030 -0.000119 0.002323 -0.000334 106.381714 71.020836
17 71.020844 -0.000030 -0.000119 0.002323 -0.000334 106.381714 71.020836
[R_front_hand03_02]
16 71.020905 0.000000 0.000030 0.002323 -0.000334 106.381714 71.020905
17 71.020905 0.000000 0.000030 0.002323 -0.000334 106.381714 71.020905
[null_rope01_connect]
16 328.732483 0.000000 -0.000238 -149.533981 -72.770493 -126.213158 328.732483
17 328.732483 0.000000 -0.000238 -149.820786 -70.076653 -123.843842 328.732483
[Rope1_Seg01]
16 -0.000019 0.000019 0.000076 47.417866 12.129511 -119.876350 0.000081
17 -0.000020 0.000018 0.000081 51.479309 10.522628 -120.927856 0.000086
[Rope1_Seg02]
16 139.999863 -0.000179 0.000000 8.025002 -0.544912 -1.821468 139.999863
17 139.999863 -0.000179 0.000000 2.004926 -0.020700 -0.701101 139.999863
[Rope1_Seg03]
16 139.999924 0.000060 -0.000060 17.789568 -2.484463 -2.640508 139.999924
17 139.999924 0.000060 -0.000060 8.854735 -1.563362 -1.443993 139.999924
[Rope1_Seg04]
16 139.999924 -0.000060 -0.000119 29.108744 -9.363104 -2.880215 139.999924
17 139.999924 -0.000060 -0.000119 21.517935 -6.184418 -2.576067 139.999924
[Rope1_Seg05]
16 139.999832 0.000119 -0.000060 -75.477615 15.986879 -7.643101 139.999832
17 139.999832 0.000119 -0.000060 -68.251305 16.588907 -2.369593 139.999832
[Rope1_Seg06]
16 139.999954 0.000119 -0.000060 -57.399044 10.603159 13.860476 139.999954
17 139.999954 0.000119 -0.000060 -37.184597 6.439372 11.867310 139.999954
[Rope1_Seg07]
16 139.999985 0.000060 0.000000 -4.832708 -1.886021 5.410188 139.999985
17 139.999985 0.000060 0.000000 -5.834341 -0.673062 4.652651 139.999985
[Rope1_Seg09]
16 121.602913 0.000119 -0.000089 -89.793175 -1.359789 0.847147 121.602913
17 121.602913 0.000119 -0.000089 -89.793175 -1.359789 0.847147 121.602913
[L_mid_hand01]
16 103.859421 1.038730 8.195221 122.214622 -62.281231 -29.682964 104.187431
17 103.859421 1.038730 8.195221 126.075401 -65.098549 -33.991913 104.187431
[L_mid_hand02]
16 105.572853 -4.139662 -10.864139 -163.055801 41.815437 -64.846191 106.211075
17 105.572853 -4.139662 -10.864139 -166.035263 42.723965 -69.273842 106.211075
[L_mid_hand03]
16 104.641464 17.579376 -3.913581 -8.059158 17.002197 68.062881 106.179977
17 104.641464 17.579376 -3.913581 -7.014418 17.452778 71.596474 106.179977
[null_rope02_connect]
16 328.732849 0.000179 -0.000119 -123.611603 81.928581 -19.321730 328.732849
17 328.732849 0.000179 -0.000119 -119.930473 81.599495 -17.253315 328.732849
[Rope2_Seg01]
16 0.000057 0.000076 0.000000 26.050383 -1.636470 -43.242836 0.000095
17 0.000058 0.000071 0.000000 24.879261 0.613628 -42.784641 0.000092
[Rope2_Seg02]
16 139.999741 -0.000060 -0.000119 38.154160 -1.341479 -13.837709 139.999756
17 139.999741 -0.000060 -0.000119 41.743145 -2.824546 -13.962581 139.999756
[Rope2_Seg03]
16 140.000107 0.000030 0.000000 34.610523 -13.656868 -14.676435 140.000107
17 140.000107 0.000030 0.000000 30.667751 -16.285843 -12.542809 140.000107
[Rope2_Seg04]
16 139.999802 0.000000 -0.000060 16.591291 -30.488403 -7.184127 139.999802
17 139.999802 0.000000 -0.000060 12.189744 -29.742592 -3.493484 139.999802
[Rope2_Seg05]
16 139.999985 -0.000060 0.000119 0.955476 -2.563449 -0.840943 139.999985
17 139.999985 -0.000060 0.000119 0.675444 -0.088816 -1.433177 139.999985
[Rope2_Seg06]
16 139.999893 -0.000030 -0.000119 -4.516272 17.990438 -2.873503 139.999893
17 139.999893 -0.000030 -0.000119 -3.536484 16.983408 -3.988982 139.999893
[Rope2_Seg07]
16 139.999893 0.000060 -0.000060 -3.737628 8.929331 -0.866033 139.999893
17 139.999893 0.000060 -0.000060 -1.981921 6.881979 -1.425760 139.999893
[Rope2_Seg09]
16 121.338966 0.000089 -0.000060 33.793236 -1.359788 -0.847141 121.338966
17 121.338966 0.000089 -0.000060 33.793236 -1.359788 -0.847141 121.338966
[R_mid_hand01]
16 104.680779 11.144459 -10.335981 -32.057350 37.073116 46.635818 105.778534
17 104.680779 11.144459 -10.335981 -28.450209 39.729855 52.441807 105.778534
[R_mid_hand02]
16 104.070427 2.443552 8.231699 66.850014 -50.884758 18.890066 104.424065
17 104.070427 2.443552 8.231699 63.903580 -55.672924 22.558943 104.424065
[R_mid_hand03]
16 106.028137 -11.221827 -5.996406 -171.959641 13.662919 -56.404911 106.788818
17 106.028137 -11.221827 -5.996406 -173.263687 14.341302 -61.789295 106.788818
[spine02]
16 129.756927 0.001550 0.000119 0.508071 -4.027800 -15.024207 129.756927
17 129.756927 0.001550 0.000119 0.495165 -4.029458 -14.866557 129.756927
[spine03]
16 78.613976 0.081558 -4.899001 1.984182 3.787537 17.778913 78.766510
17 78.613976 0.081553 -4.899000 1.978833 3.789432 17.691105 78.766510
[pelvis]
16 169.435242 0.051022 0.000000 -0.069525 -0.178053 16.748093 169.435257
17 169.435242 0.051022 0.000000 -0.069218 -0.178173 16.550692 169.435257
[null_rope03_connect]
16 -1.257226 -2.466202 137.391083 -75.115402 -87.176590 125.638817 137.418976
17 -1.257226 -2.466202 137.391083 -109.207893 -86.927063 162.297455 137.418976
[null_rope04_connect]
16 -1.259640 -2.480268 -137.844437 -75.115402 -87.176590 125.638817 137.872513
17 -1.259640 -2.480268 -137.844437 -109.207893 -86.927063 162.297455 137.872513
[Rope3_Seg01]
16 0.000010 0.000038 -0.000114 -131.008423 14.265107 -77.303047 0.000121
17 0.000010 0.000038 -0.000114 -131.041061 11.631867 -78.235825 0.000121
[Rope3_Seg02]
16 139.999924 -0.000119 0.000060 0.797818 7.015281 5.136161 139.999924
17 139.999924 -0.000119 0.000060 0.776190 6.832966 5.078546 139.999924
[Rope3_Seg03]
16 139.999924 -0.000119 0.000119 1.511763 7.973330 5.920432 139.999924
17 139.999924 -0.000119 0.000119 1.507027 7.972866 5.994556 139.999924
[Rope3_Seg04]
16 139.999924 0.000119 0.000000 4.693264 13.731690 11.562096 139.999924
17 139.999924 0.000119 0.000000 4.464743 13.182779 10.470091 139.999924
[Rope3_Seg05]
16 139.999924 -0.000238 0.000060 0.863107 -0.048802 -1.838636 139.999924
17 139.999924 -0.000238 0.000060 -0.132541 -2.505241 -2.914409 139.999924
[Rope3_Seg06]
16 139.999893 -0.000119 -0.000060 -0.035040 -13.779197 -13.375311 139.999893
17 139.999893 -0.000119 -0.000060 -0.409653 -13.749331 -11.665973 139.999893
[Rope3_Seg07]
16 139.999771 0.000060 -0.000119 0.601694 -7.502729 -7.775599 139.999771
17 139.999771 0.000060 -0.000119 0.406513 -6.245315 -5.689136 139.999771
[Rope3_Seg08]
16 139.999985 -0.000060 0.000000 0.587413 -3.517744 -3.757791 139.999985
17 139.999985 -0.000060 0.000000 0.523981 -3.191216 -2.937314 139.999985
[Rope3_Seg09]
16 90.185997 -0.000179 -0.000060 89.793228 -1.359877 -0.847183 90.185997
17 90.185997 -0.000179 -0.000060 89.793228 -1.359877 -0.847183 90.185997
[R_rear_hand01]
16 103.366196 -6.073594 -10.757982 -169.706436 22.536156 -54.046982 104.101845
17 103.366196 -6.073594 -10.757982 -171.885513 23.373785 -59.632885 104.101845
[R_rear_hand02]
16 100.509819 12.039542 -7.992327 -24.637733 30.906170 51.254921 101.543350
17 100.509819 12.039542 -7.992327 -21.647255 32.954239 56.905464 101.543350
[R_rear_hand03]
16 101.539970 5.215704 5.435467 80.293877 -53.997543 11.741186 101.819031
17 101.539970 5.215704 5.435467 78.870155 -59.127991 13.449200 101.819031
[Rope4_Seg01]
16 0.000010 0.000038 -0.000114 43.945385 8.132370 -128.219177 0.000121
17 0.000010 0.000038 -0.000114 43.674793 8.570353 -128.575775 0.000121
[Rope4_Seg02]
16 139.999985 0.000060 0.000119 1.249820 7.606047 6.373248 139.999985
17 139.999985 0.000060 0.000119 1.448254 6.619779 6.643604 139.999985
[Rope4_Seg03]
16 139.999924 0.000000 -0.000238 1.303764 11.198665 9.193773 139.999924
17 139.999924 0.000000 -0.000238 1.498284 10.216955 9.970098 139.999924
[Rope4_Seg04]
16 139.999985 0.000000 0.000119 1.766717 22.580626 19.545151 139.999985
17 139.999985 0.000000 0.000119 1.497588 21.803034 23.302402 139.999985
[Rope4_Seg05]
16 139.999802 -0.000060 -0.000119 -2.018338 9.956604 8.573051 139.999802
17 139.999802 -0.000060 -0.000119 -2.816653 9.838806 9.842152 139.999802
[Rope4_Seg06]
16 139.999924 0.000000 0.000060 5.319318 -12.411835 -12.666456 139.999924
17 139.999924 0.000000 0.000060 8.416853 -11.416749 -17.555689 139.999924
[Rope4_Seg07]
16 139.999802 0.000000 0.000000 1.816694 -8.375074 -7.337369 139.999802
17 139.999802 0.000000 0.000000 2.268327 -7.214487 -8.584903 139.999802
[Rope4_Seg08]
16 139.999924 0.000000 0.000119 -1.143737 -2.902274 -2.448266 139.999924
17 139.999924 0.000000 0.000119 -1.031154 -2.533717 -2.973818 139.999924
[Rope4_Seg09]
16 90.185791 0.000060 0.000060 -135.617828 2.228885 0.850567 90.185791
17 90.185791 0.000060 0.000060 -135.617828 2.228885 0.850567 90.185791
[L_rear_hand01]
16 101.696655 -8.392275 -7.654577 -16.606979 -35.526840 114.151619 102.329041
17 101.696655 -8.392275 -7.654577 -14.676040 -36.272415 110.857796 102.329041
[L_rear_hand02]
16 102.726799 -1.568258 5.773216 75.446785 66.761177 162.720428 102.900848
17 102.726799 -1.568258 5.773216 73.610291 69.437737 160.740738 102.900848
[L_rear_hand03]
16 104.552910 9.721220 -10.420293 -175.325211 -24.244322 -111.864204 105.519653
17 104.552910 9.721220 -10.420293 -176.571304 -24.441328 -108.830574 105.519653
